<svg xmlns="http://www.w3.org/2000/svg" xmlns:xlink="http://www.w3.org/1999/xlink" id="exportSvg" width="600" height="304"><defs/><g><g id="__svelte-dw-svg" clip-path="url(#rect-mask-__svelte-dw-4EoxsFe4l7yCUWBZa95dN)"><clipPath id="rect-mask-__svelte-dw-4EoxsFe4l7yCUWBZa95dN"><rect x="0" y="0" width="600" height="304"/></clipPath><g id="header-svg"><text transform="translate(0, 0)"><tspan fill="rgb(0,0,0)" x="0" y="22" style="font-family: Roboto; font-weight: 700; font-size: 22px;">Delaware Census Count vs. DOC Count</tspan></text></g><g id="chart-svg"><text transform="translate(0, 36)"><tspan fill="rgb(24,24,24)" x="17" y="12.828125" style="font-family: Roboto; font-weight: 400; font-size: 12px;">Census</tspan><tspan fill="rgb(24,24,24)" style="font-family: Roboto; font-weight: 400; font-size: 12px;">​ Count</tspan></text><rect width="14" height="14" transform="translate(0, 36.828125)" fill="rgb(24,161,205)" style="fill: rgb(24, 161, 205);"/><text transform="translate(101.5625, 36)"><tspan fill="rgb(24,24,24)" x="17" y="12.828125" style="font-family: Roboto; font-weight: 400; font-size: 12px;">DOC</tspan><tspan fill="rgb(24,24,24)" style="font-family: Roboto; font-weight: 400; font-size: 12px;">​ Count</tspan></text><rect width="14" height="14" transform="translate(101.5625, 36.828125)" fill="rgb(29,129,162)" style="fill: rgb(29, 129, 162);"/><g id="grid-container-svg" transform="translate(47.18750, 81.82813)"><g id="grid-svg"><g id="x-grid-lines-svg grid-x-svg datawrapper-1VICr-1fn7900-svg"><line x1="0" x2="0" y1="188" y2="0" transform="translate(65.63444679564692, 0)" style="fill: none; stroke-width: 1; stroke-linejoin: miter; stroke-linecap: butt; stroke: rgb(231, 231, 231);"/><line x1="0" x2="0" y1="188" y2="0" transform="translate(131.26889359129385, 0)" style="fill: none; stroke-width: 1; stroke-linejoin: miter; stroke-linecap: butt; stroke: rgb(231, 231, 231);"/><line x1="0" x2="0" y1="188" y2="0" transform="translate(196.90334038694076, 0)" style="fill: none; stroke-width: 1; stroke-linejoin: miter; stroke-linecap: butt; stroke: rgb(231, 231, 231);"/><line x1="0" x2="0" y1="188" y2="0" transform="translate(262.5377871825877, 0)" style="fill: none; stroke-width: 1; stroke-linejoin: miter; stroke-linecap: butt; stroke: rgb(231, 231, 231);"/><line x1="0" x2="0" y1="188" y2="0" transform="translate(328.1722339782346, 0)" style="fill: none; stroke-width: 1; stroke-linejoin: miter; stroke-linecap: butt; stroke: rgb(231, 231, 231);"/><line x1="0" x2="0" y1="188" y2="0" transform="translate(393.8066807738815, 0)" style="fill: none; stroke-width: 1; stroke-linejoin: miter; stroke-linecap: butt; stroke: rgb(231, 231, 231);"/><line x1="0" x2="0" y1="188" y2="0" transform="translate(459.4411275695284, 0)" style="fill: none; stroke-width: 1; stroke-linejoin: miter; stroke-linecap: butt; stroke: rgb(231, 231, 231);"/><line x1="0" x2="0" y1="188" y2="0" transform="translate(525.0755743651754, 0)" style="fill: none; stroke-width: 1; stroke-linejoin: miter; stroke-linecap: butt; stroke: rgb(231, 231, 231);"/></g></g></g><text transform="translate(1, 84.828125)"><tspan fill="rgb(24,24,24)" x="0" y="12" style="font-family: Roboto; font-weight: 400; font-size: 12px;">JTVCC</tspan></text><rect width="542.46875" height="20" transform="translate(47.1875, 81.828125)" fill="rgb(24,161,205)" style="fill: rgb(24, 161, 205);"/><rect width="542.796875" height="8" transform="translate(47.1875, 87.828125)" fill="rgb(29,129,162)" style="fill: rgb(29, 129, 162);"/><text transform="translate(1, 108.828125)"><tspan fill="rgb(24,24,24)" x="0" y="12" style="font-family: Roboto; font-weight: 400; font-size: 12px;">HRYCI</tspan></text><rect width="420.390625" height="20" transform="translate(47.1875, 105.828125)" fill="rgb(24,161,205)" style="fill: rgb(24, 161, 205);"/><rect width="420.390625" height="8" transform="translate(47.1875, 111.828125)" fill="rgb(29,129,162)" style="fill: rgb(29, 129, 162);"/><text transform="translate(1, 132.828125)"><tspan fill="rgb(24,24,24)" x="0" y="12" style="font-family: Roboto; font-weight: 400; font-size: 12px;">SCI</tspan></text><rect width="336.0625" height="20" transform="translate(47.1875, 129.828125)" fill="rgb(24,161,205)" style="fill: rgb(24, 161, 205);"/><rect width="340.328125" height="8" transform="translate(47.1875, 135.828125)" fill="rgb(29,129,162)" style="fill: rgb(29, 129, 162);"/><text transform="translate(1, 156.828125)"><tspan fill="rgb(24,24,24)" x="0" y="12" style="font-family: Roboto; font-weight: 400; font-size: 12px;">BWCI</tspan></text><rect width="100.09375" height="20" transform="translate(47.1875, 153.828125)" fill="rgb(24,161,205)" style="fill: rgb(24, 161, 205);"/><rect width="77.125" height="8" transform="translate(47.1875, 159.828125)" fill="rgb(29,129,162)" style="fill: rgb(29, 129, 162);"/><text transform="translate(1, 180.828125)"><tspan fill="rgb(24,24,24)" x="0" y="12" style="font-family: Roboto; font-weight: 400; font-size: 12px;">SCCC</tspan></text><rect width="90.578125" height="20" transform="translate(47.1875, 177.828125)" fill="rgb(24,161,205)" style="fill: rgb(24, 161, 205);"/><rect width="73.1875" height="8" transform="translate(47.1875, 183.828125)" fill="rgb(29,129,162)" style="fill: rgb(29, 129, 162);"/><text transform="translate(1, 204.828125)"><tspan fill="rgb(24,24,24)" x="0" y="12" style="font-family: Roboto; font-weight: 400; font-size: 12px;">PCCC</tspan></text><rect width="49.5625" height="20" transform="translate(47.1875, 201.828125)" fill="rgb(24,161,205)" style="fill: rgb(24, 161, 205);"/><rect width="48.25" height="8" transform="translate(47.1875, 207.828125)" fill="rgb(29,129,162)" style="fill: rgb(29, 129, 162);"/><text transform="translate(1, 228.828125)"><tspan fill="rgb(24,24,24)" x="0" y="12" style="font-family: Roboto; font-weight: 400; font-size: 12px;">MCCC</tspan></text><rect width="36.4375" height="20" transform="translate(47.1875, 225.828125)" fill="rgb(24,161,205)" style="fill: rgb(24, 161, 205);"/><rect width="32.5" height="8" transform="translate(47.1875, 231.828125)" fill="rgb(29,129,162)" style="fill: rgb(29, 129, 162);"/><text transform="translate(1, 252.828125)"><tspan fill="rgb(24,24,24)" x="0" y="12" style="font-family: Roboto; font-weight: 400; font-size: 12px;">HDP</tspan></text><rect width="0" height="20" transform="translate(47.1875, 249.828125)" fill="rgb(24,161,205)" style="fill: rgb(24, 161, 205);"/><rect width="23.640625" height="8" transform="translate(47.1875, 255.828125)" fill="rgb(29,129,162)" style="fill: rgb(29, 129, 162);"/><g id="grid-container-svg" transform="translate(47.18750, 81.82813)"><g id="grid-svg"><g id="x-tick-labels-svg grid-x-svg number-axis-svg datawrapper-1VICr-16k86v8-svg" transform="translate(0, -8)"><text transform="translate(0, 0) translate(-3.50781, 0.00000) translate(3.5078125, 0)" style="text-anchor: middle;"><tspan fill="rgb(162, 162, 162)" style="font-family: Roboto; font-weight: 400; font-size: 12px;" x="0" dominant-baseline="auto" y="0">0</tspan></text><text transform="translate(65.63444679564692, 0) translate(-10.24219, 0.00000) translate(10.2421875, 0)" style="text-anchor: middle;"><tspan fill="rgb(162, 162, 162)" style="font-family: Roboto; font-weight: 400; font-size: 12px;" x="0" dominant-baseline="auto" y="0">200</tspan></text><text transform="translate(131.26889359129385, 0) translate(-10.24219, 0.00000) translate(10.2421875, 0)" style="text-anchor: middle;"><tspan fill="rgb(162, 162, 162)" style="font-family: Roboto; font-weight: 400; font-size: 12px;" x="0" dominant-baseline="auto" y="0">400</tspan></text><text transform="translate(196.90334038694076, 0) translate(-10.24219, 0.00000) translate(10.2421875, 0)" style="text-anchor: middle;"><tspan fill="rgb(162, 162, 162)" style="font-family: Roboto; font-weight: 400; font-size: 12px;" x="0" dominant-baseline="auto" y="0">600</tspan></text><text transform="translate(262.5377871825877, 0) translate(-10.24219, 0.00000) translate(10.2421875, 0)" style="text-anchor: middle;"><tspan fill="rgb(162, 162, 162)" style="font-family: Roboto; font-weight: 400; font-size: 12px;" x="0" dominant-baseline="auto" y="0">800</tspan></text><text transform="translate(328.1722339782346, 0) translate(-14.78906, 0.00000) translate(14.7890625, 0)" style="text-anchor: middle;"><tspan fill="rgb(162, 162, 162)" style="font-family: Roboto; font-weight: 400; font-size: 12px;" x="0" dominant-baseline="auto" y="0">1,000</tspan></text><text transform="translate(393.8066807738815, 0) translate(-14.78906, 0.00000) translate(14.7890625, 0)" style="text-anchor: middle;"><tspan fill="rgb(162, 162, 162)" style="font-family: Roboto; font-weight: 400; font-size: 12px;" x="0" dominant-baseline="auto" y="0">1,200</tspan></text><text transform="translate(459.4411275695284, 0) translate(-14.78908, 0.00000) translate(14.789077758789062, 0)" style="text-anchor: middle;"><tspan fill="rgb(162, 162, 162)" style="font-family: Roboto; font-weight: 400; font-size: 12px;" x="0" dominant-baseline="auto" y="0">1,400</tspan></text><text transform="translate(525.0755743651754, 0) translate(-14.78906, 0.00000) translate(14.7890625, 0)" style="text-anchor: middle;"><tspan fill="rgb(162, 162, 162)" style="font-family: Roboto; font-weight: 400; font-size: 12px;" x="0" dominant-baseline="auto" y="0">1,600</tspan></text></g><g id="x-base-lines-svg grid-x-svg datawrapper-1VICr-1io9s9d-svg"><line x1="0" x2="0" y1="188" y2="0" transform="translate(0, 0)" style="fill: none; stroke-width: 1; stroke-linejoin: miter; stroke-linecap: butt; stroke: rgb(24, 24, 24);"/></g></g></g></g><g id="footer-svg"><text transform="translate(0, 291)"><tspan fill="rgb(136,136,136)" x="0" y="11" style="font-family: Roboto; font-weight: 400; font-size: 11px;">Created with</tspan><tspan fill="rgb(136,136,136)" style="font-family: Roboto; font-weight: 400; font-size: 11px;">​ ​</tspan><tspan fill="rgb(136,136,136)" style="font-family: Roboto; font-weight: 400; font-size: 11px;">Datawrapper</tspan></text></g></g></g></svg>