<svg xmlns="http://www.w3.org/2000/svg" xmlns:xlink="http://www.w3.org/1999/xlink" id="exportSvg" width="600" height="1648"><defs/><g><g id="__svelte-dw-svg" clip-path="url(#rect-mask-__svelte-dw-_uI0KYTq_9eaA5gFO_jbS)"><clipPath id="rect-mask-__svelte-dw-_uI0KYTq_9eaA5gFO_jbS"><rect x="0" y="0" width="600" height="1648"/></clipPath><g id="header-svg"><text transform="translate(0, 0)"><tspan fill="rgb(0,0,0)" x="0" y="22" style="font-family: Roboto; font-weight: 700; font-size: 22px;">New York Census Count vs. DOCCS Count</tspan></text></g><g id="chart-svg"><text transform="translate(0, 36)"><tspan fill="rgb(24,24,24)" x="17" y="12.828125" style="font-family: Roboto; font-weight: 400; font-size: 12px;">Total</tspan><tspan fill="rgb(24,24,24)" style="font-family: Roboto; font-weight: 400; font-size: 12px;">​ Pop Census</tspan></text><rect width="14" height="14" transform="translate(0, 36.828125)" fill="rgb(24,161,205)" style="fill: rgb(24, 161, 205);"/><text transform="translate(120.59375, 36)"><tspan fill="rgb(24,24,24)" x="17" y="12.828125" style="font-family: Roboto; font-weight: 400; font-size: 12px;">DOCCS</tspan><tspan fill="rgb(24,24,24)" style="font-family: Roboto; font-weight: 400; font-size: 12px;">​ Population</tspan></text><rect width="14" height="14" transform="translate(120.59375, 36.828125)" fill="rgb(29,129,162)" style="fill: rgb(29, 129, 162);"/><g id="grid-container-svg" transform="translate(193.84375, 81.82813)"><g id="grid-svg"><g id="x-grid-lines-svg grid-x-svg datawrapper-JYHbs-1fn7900-svg"><line x1="0" x2="0" y1="1532" y2="0" transform="translate(97.04571901028908, 0)" style="fill: none; stroke-width: 1; stroke-linejoin: miter; stroke-linecap: butt; stroke: rgb(231, 231, 231);"/><line x1="0" x2="0" y1="1532" y2="0" transform="translate(194.09143802057815, 0)" style="fill: none; stroke-width: 1; stroke-linejoin: miter; stroke-linecap: butt; stroke: rgb(231, 231, 231);"/><line x1="0" x2="0" y1="1532" y2="0" transform="translate(291.13715703086723, 0)" style="fill: none; stroke-width: 1; stroke-linejoin: miter; stroke-linecap: butt; stroke: rgb(231, 231, 231);"/><line x1="0" x2="0" y1="1532" y2="0" transform="translate(388.1828760411563, 0)" style="fill: none; stroke-width: 1; stroke-linejoin: miter; stroke-linecap: butt; stroke: rgb(231, 231, 231);"/></g></g></g><text transform="translate(1, 84.828125)"><tspan fill="rgb(24,24,24)" x="0" y="12" style="font-family: Roboto; font-weight: 400; font-size: 12px;">Attica Correctional Facility</tspan></text><rect width="361.59375" height="20" transform="translate(193.84375, 81.828125)" fill="rgb(24,161,205)" style="fill: rgb(24, 161, 205);"/><rect width="363.734375" height="8" transform="translate(193.84375, 87.828125)" fill="rgb(29,129,162)" style="fill: rgb(29, 129, 162);"/><text transform="translate(1, 108.828125)"><tspan fill="rgb(24,24,24)" x="0" y="12" style="font-family: Roboto; font-weight: 400; font-size: 12px;">Green Haven Correctional Facility</tspan></text><rect width="347.046875" height="20" transform="translate(193.84375, 105.828125)" fill="rgb(24,161,205)" style="fill: rgb(24, 161, 205);"/><rect width="350.34375" height="8" transform="translate(193.84375, 111.828125)" fill="rgb(29,129,162)" style="fill: rgb(29, 129, 162);"/><text transform="translate(1, 132.828125)"><tspan fill="rgb(24,24,24)" x="0" y="12" style="font-family: Roboto; font-weight: 400; font-size: 12px;">Clinton Correctional Facility</tspan></text><rect width="338.890625" height="20" transform="translate(193.84375, 129.828125)" fill="rgb(24,161,205)" style="fill: rgb(24, 161, 205);"/><rect width="339.671875" height="8" transform="translate(193.84375, 135.828125)" fill="rgb(29,129,162)" style="fill: rgb(29, 129, 162);"/><text transform="translate(1, 156.828125)"><tspan fill="rgb(24,24,24)" x="0" y="12" style="font-family: Roboto; font-weight: 400; font-size: 12px;">Elmira Correctional Facility</tspan></text><rect width="278.140625" height="20" transform="translate(193.84375, 153.828125)" fill="rgb(24,161,205)" style="fill: rgb(24, 161, 205);"/><rect width="282.40625" height="8" transform="translate(193.84375, 159.828125)" fill="rgb(29,129,162)" style="fill: rgb(29, 129, 162);"/><text transform="translate(1, 180.828125)"><tspan fill="rgb(24,24,24)" x="0" y="12" style="font-family: Roboto; font-weight: 400; font-size: 12px;">Greene Correctional Facility</tspan></text><rect width="267.65625" height="20" transform="translate(193.84375, 177.828125)" fill="rgb(24,161,205)" style="fill: rgb(24, 161, 205);"/><rect width="268.234375" height="8" transform="translate(193.84375, 183.828125)" fill="rgb(29,129,162)" style="fill: rgb(29, 129, 162);"/><text transform="translate(1, 204.828125)"><tspan fill="rgb(24,24,24)" x="0" y="12" style="font-family: Roboto; font-weight: 400; font-size: 12px;">Sing Sing Correctional Facility</tspan></text><rect width="265.328125" height="20" transform="translate(193.84375, 201.828125)" fill="rgb(24,161,205)" style="fill: rgb(24, 161, 205);"/><rect width="264.171875" height="8" transform="translate(193.84375, 207.828125)" fill="rgb(29,129,162)" style="fill: rgb(29, 129, 162);"/><text transform="translate(1, 228.828125)"><tspan fill="rgb(24,24,24)" x="0" y="12" style="font-family: Roboto; font-weight: 400; font-size: 12px;">Mohawk Correctional Facility</tspan></text><rect width="251.15625" height="20" transform="translate(193.84375, 225.828125)" fill="rgb(24,161,205)" style="fill: rgb(24, 161, 205);"/><rect width="250.96875" height="8" transform="translate(193.84375, 231.828125)" fill="rgb(29,129,162)" style="fill: rgb(29, 129, 162);"/><text transform="translate(1, 252.828125)"><tspan fill="rgb(24,24,24)" x="0" y="12" style="font-family: Roboto; font-weight: 400; font-size: 12px;">Wyoming Correctional Facility</tspan></text><rect width="44.0625" height="20" transform="translate(193.84375, 249.828125)" fill="rgb(24,161,205)" style="fill: rgb(24, 161, 205);"/><rect width="226.125" height="8" transform="translate(193.84375, 255.828125)" fill="rgb(29,129,162)" style="fill: rgb(29, 129, 162);"/><text transform="translate(1, 276.828125)"><tspan fill="rgb(24,24,24)" x="0" y="12" style="font-family: Roboto; font-weight: 400; font-size: 12px;">Great Meadow Correctional Facility</tspan></text><rect width="221.265625" height="20" transform="translate(193.84375, 273.828125)" fill="rgb(24,161,205)" style="fill: rgb(24, 161, 205);"/><rect width="222.4375" height="8" transform="translate(193.84375, 279.828125)" fill="rgb(29,129,162)" style="fill: rgb(29, 129, 162);"/><text transform="translate(1, 300.828125)"><tspan fill="rgb(24,24,24)" x="0" y="12" style="font-family: Roboto; font-weight: 400; font-size: 12px;">Auburn Correctional Facility</tspan></text><rect width="217.78125" height="20" transform="translate(193.84375, 297.828125)" fill="rgb(24,161,205)" style="fill: rgb(24, 161, 205);"/><rect width="220.296875" height="8" transform="translate(193.84375, 303.828125)" fill="rgb(29,129,162)" style="fill: rgb(29, 129, 162);"/><text transform="translate(1, 324.828125)"><tspan fill="rgb(24,24,24)" x="0" y="12" style="font-family: Roboto; font-weight: 400; font-size: 12px;">Gowanda Correctional Facility</tspan></text><rect width="396.140625" height="20" transform="translate(193.84375, 321.828125)" fill="rgb(24,161,205)" style="fill: rgb(24, 161, 205);"/><rect width="218.359375" height="8" transform="translate(193.84375, 327.828125)" fill="rgb(29,129,162)" style="fill: rgb(29, 129, 162);"/><text transform="translate(1, 348.828125)"><tspan fill="rgb(24,24,24)" x="0" y="12" style="font-family: Roboto; font-weight: 400; font-size: 12px;">Franklin Correctional Facility</tspan></text><rect width="218.359375" height="20" transform="translate(193.84375, 345.828125)" fill="rgb(24,161,205)" style="fill: rgb(24, 161, 205);"/><rect width="218.171875" height="8" transform="translate(193.84375, 351.828125)" fill="rgb(29,129,162)" style="fill: rgb(29, 129, 162);"/><text transform="translate(1, 372.828125)"><tspan fill="rgb(24,24,24)" x="0" y="12" style="font-family: Roboto; font-weight: 400; font-size: 12px;">Fishkill Correctional Facility</tspan></text><rect width="213.703125" height="20" transform="translate(193.84375, 369.828125)" fill="rgb(24,161,205)" style="fill: rgb(24, 161, 205);"/><rect width="215.25" height="8" transform="translate(193.84375, 375.828125)" fill="rgb(29,129,162)" style="fill: rgb(29, 129, 162);"/><text transform="translate(1, 396.828125)"><tspan fill="rgb(24,24,24)" x="0" y="12" style="font-family: Roboto; font-weight: 400; font-size: 12px;">Bare Hill Correctional Facility</tspan></text><rect width="209.4375" height="20" transform="translate(193.84375, 393.828125)" fill="rgb(24,161,205)" style="fill: rgb(24, 161, 205);"/><rect width="209.625" height="8" transform="translate(193.84375, 399.828125)" fill="rgb(29,129,162)" style="fill: rgb(29, 129, 162);"/><text transform="translate(1, 420.828125)"><tspan fill="rgb(24,24,24)" x="0" y="12" style="font-family: Roboto; font-weight: 400; font-size: 12px;">Marcy Correctional Facility</tspan></text><rect width="202.828125" height="20" transform="translate(193.84375, 417.828125)" fill="rgb(24,161,205)" style="fill: rgb(24, 161, 205);"/><rect width="208.84375" height="8" transform="translate(193.84375, 423.828125)" fill="rgb(29,129,162)" style="fill: rgb(29, 129, 162);"/><text transform="translate(1, 444.828125)"><tspan fill="rgb(24,24,24)" x="0" y="12" style="font-family: Roboto; font-weight: 400; font-size: 12px;">Five Points Correctional Facility</tspan></text><rect width="192.359375" height="20" transform="translate(193.84375, 441.828125)" fill="rgb(24,161,205)" style="fill: rgb(24, 161, 205);"/><rect width="207.109375" height="8" transform="translate(193.84375, 447.828125)" fill="rgb(29,129,162)" style="fill: rgb(29, 129, 162);"/><text transform="translate(1, 468.828125)"><tspan fill="rgb(24,24,24)" x="0" y="12" style="font-family: Roboto; font-weight: 400; font-size: 12px;">Collins Correctional Facility</tspan></text><rect width="396.140625" height="20" transform="translate(193.84375, 465.828125)" fill="rgb(24,161,205)" style="fill: rgb(24, 161, 205);"/><rect width="183.8125" height="8" transform="translate(193.84375, 471.828125)" fill="rgb(29,129,162)" style="fill: rgb(29, 129, 162);"/><text transform="translate(1, 492.828125)"><tspan fill="rgb(24,24,24)" x="0" y="12" style="font-family: Roboto; font-weight: 400; font-size: 12px;">Eastern Correctional Facility</tspan></text><rect width="178.953125" height="20" transform="translate(193.84375, 489.828125)" fill="rgb(24,161,205)" style="fill: rgb(24, 161, 205);"/><rect width="180.3125" height="8" transform="translate(193.84375, 495.828125)" fill="rgb(29,129,162)" style="fill: rgb(29, 129, 162);"/><text transform="translate(1, 516.828125)"><tspan fill="rgb(24,24,24)" x="0" y="12" style="font-family: Roboto; font-weight: 400; font-size: 12px;">Gouverneur Correctional Facility</tspan></text><rect width="162.46875" height="20" transform="translate(193.84375, 513.828125)" fill="rgb(24,161,205)" style="fill: rgb(24, 161, 205);"/><rect width="166.34375" height="8" transform="translate(193.84375, 519.828125)" fill="rgb(29,129,162)" style="fill: rgb(29, 129, 162);"/><text transform="translate(1, 540.828125)"><tspan fill="rgb(24,24,24)" x="0" y="12" style="font-family: Roboto; font-weight: 400; font-size: 12px;">Groveland Correctional Facility</tspan></text><rect width="163.234375" height="20" transform="translate(193.84375, 537.828125)" fill="rgb(24,161,205)" style="fill: rgb(24, 161, 205);"/><rect width="159.359375" height="8" transform="translate(193.84375, 543.828125)" fill="rgb(29,129,162)" style="fill: rgb(29, 129, 162);"/><text transform="translate(1, 564.828125)"><tspan fill="rgb(24,24,24)" x="0" y="12" style="font-family: Roboto; font-weight: 400; font-size: 12px;">Cayuga Correctional Facility</tspan></text><rect width="134.3125" height="20" transform="translate(193.84375, 561.828125)" fill="rgb(24,161,205)" style="fill: rgb(24, 161, 205);"/><rect width="156.828125" height="8" transform="translate(193.84375, 567.828125)" fill="rgb(29,129,162)" style="fill: rgb(29, 129, 162);"/><text transform="translate(1, 588.828125)"><tspan fill="rgb(24,24,24)" x="0" y="12" style="font-family: Roboto; font-weight: 400; font-size: 12px;">Midstate Correctional Facility</tspan></text><rect width="119.953125" height="20" transform="translate(193.84375, 585.828125)" fill="rgb(24,161,205)" style="fill: rgb(24, 161, 205);"/><rect width="156.25" height="8" transform="translate(193.84375, 591.828125)" fill="rgb(29,129,162)" style="fill: rgb(29, 129, 162);"/><text transform="translate(1, 612.828125)"><tspan fill="rgb(24,24,24)" x="0" y="12" style="font-family: Roboto; font-weight: 400; font-size: 12px;">Downstate Correctional Facility</tspan></text><rect width="146.734375" height="20" transform="translate(193.84375, 609.828125)" fill="rgb(24,161,205)" style="fill: rgb(24, 161, 205);"/><rect width="149.84375" height="8" transform="translate(193.84375, 615.828125)" fill="rgb(29,129,162)" style="fill: rgb(29, 129, 162);"/><text transform="translate(1, 636.828125)"><tspan fill="rgb(24,24,24)" x="0" y="12" style="font-family: Roboto; font-weight: 400; font-size: 12px;">Coxsackie Correctional Facility</tspan></text><rect width="151.59375" height="20" transform="translate(193.84375, 633.828125)" fill="rgb(24,161,205)" style="fill: rgb(24, 161, 205);"/><rect width="149.453125" height="8" transform="translate(193.84375, 639.828125)" fill="rgb(29,129,162)" style="fill: rgb(29, 129, 162);"/><text transform="translate(1, 660.828125)"><tspan fill="rgb(24,24,24)" x="0" y="12" style="font-family: Roboto; font-weight: 400; font-size: 12px;">Woodbourne Correctional Facility</tspan></text><rect width="148.09375" height="20" transform="translate(193.84375, 657.828125)" fill="rgb(24,161,205)" style="fill: rgb(24, 161, 205);"/><rect width="149.0625" height="8" transform="translate(193.84375, 663.828125)" fill="rgb(29,129,162)" style="fill: rgb(29, 129, 162);"/><text transform="translate(1, 684.828125)"><tspan fill="rgb(24,24,24)" x="0" y="12" style="font-family: Roboto; font-weight: 400; font-size: 12px;">Albion Correctional Facility</tspan></text><rect width="81.328125" height="20" transform="translate(193.84375, 681.828125)" fill="rgb(24,161,205)" style="fill: rgb(24, 161, 205);"/><rect width="147.328125" height="8" transform="translate(193.84375, 687.828125)" fill="rgb(29,129,162)" style="fill: rgb(29, 129, 162);"/><text transform="translate(1, 708.828125)"><tspan fill="rgb(24,24,24)" x="0" y="12" style="font-family: Roboto; font-weight: 400; font-size: 12px;">Washington Correctional Facility</tspan></text><rect width="145" height="20" transform="translate(193.84375, 705.828125)" fill="rgb(24,161,205)" style="fill: rgb(24, 161, 205);"/><rect width="143.25" height="8" transform="translate(193.84375, 711.828125)" fill="rgb(29,129,162)" style="fill: rgb(29, 129, 162);"/><text transform="translate(1, 732.828125)"><tspan fill="rgb(24,24,24)" x="0" y="12" style="font-family: Roboto; font-weight: 400; font-size: 12px;">Cape Vincent Correctional Facility</tspan></text><rect width="135.296875" height="20" transform="translate(193.84375, 729.828125)" fill="rgb(24,161,205)" style="fill: rgb(24, 161, 205);"/><rect width="138.390625" height="8" transform="translate(193.84375, 735.828125)" fill="rgb(29,129,162)" style="fill: rgb(29, 129, 162);"/><text transform="translate(1, 756.828125)"><tspan fill="rgb(24,24,24)" x="0" y="12" style="font-family: Roboto; font-weight: 400; font-size: 12px;">Riverview Correctional Facility</tspan></text><rect width="112.1875" height="20" transform="translate(193.84375, 753.828125)" fill="rgb(24,161,205)" style="fill: rgb(24, 161, 205);"/><rect width="134.125" height="8" transform="translate(193.84375, 759.828125)" fill="rgb(29,129,162)" style="fill: rgb(29, 129, 162);"/><text transform="translate(1, 780.828125)"><tspan fill="rgb(24,24,24)" x="0" y="12" style="font-family: Roboto; font-weight: 400; font-size: 12px;">Wende Correctional Facility</tspan></text><rect width="123.453125" height="20" transform="translate(193.84375, 777.828125)" fill="rgb(24,161,205)" style="fill: rgb(24, 161, 205);"/><rect width="125.390625" height="8" transform="translate(193.84375, 783.828125)" fill="rgb(29,129,162)" style="fill: rgb(29, 129, 162);"/><text transform="translate(1, 804.828125)"><tspan fill="rgb(24,24,24)" x="0" y="12" style="font-family: Roboto; font-weight: 400; font-size: 12px;">Bedford Hills Correctional Facility</tspan></text><rect width="52.21875" height="20" transform="translate(193.84375, 801.828125)" fill="rgb(24,161,205)" style="fill: rgb(24, 161, 205);"/><rect width="125" height="8" transform="translate(193.84375, 807.828125)" fill="rgb(29,129,162)" style="fill: rgb(29, 129, 162);"/><text transform="translate(1, 828.828125)"><tspan fill="rgb(24,24,24)" x="0" y="12" style="font-family: Roboto; font-weight: 400; font-size: 12px;">Lakeview Correctional Facility</tspan></text><rect width="119.765625" height="20" transform="translate(193.84375, 825.828125)" fill="rgb(24,161,205)" style="fill: rgb(24, 161, 205);"/><rect width="121.890625" height="8" transform="translate(193.84375, 831.828125)" fill="rgb(29,129,162)" style="fill: rgb(29, 129, 162);"/><text transform="translate(1, 852.828125)"><tspan fill="rgb(24,24,24)" x="0" y="12" style="font-family: Roboto; font-weight: 400; font-size: 12px;">Orleans Correctional Facility</tspan></text><rect width="158.578125" height="20" transform="translate(193.84375, 849.828125)" fill="rgb(24,161,205)" style="fill: rgb(24, 161, 205);"/><rect width="118.203125" height="8" transform="translate(193.84375, 855.828125)" fill="rgb(29,129,162)" style="fill: rgb(29, 129, 162);"/><text transform="translate(1, 876.828125)"><tspan fill="rgb(24,24,24)" x="0" y="12" style="font-family: Roboto; font-weight: 400; font-size: 12px;">Otisville Correctional Facility</tspan></text><rect width="113.15625" height="20" transform="translate(193.84375, 873.828125)" fill="rgb(24,161,205)" style="fill: rgb(24, 161, 205);"/><rect width="113.359375" height="8" transform="translate(193.84375, 879.828125)" fill="rgb(29,129,162)" style="fill: rgb(29, 129, 162);"/><text transform="translate(1, 900.828125)"><tspan fill="rgb(24,24,24)" x="0" y="12" style="font-family: Roboto; font-weight: 400; font-size: 12px;">Upstate Correctional Facility</tspan></text><rect width="113.75" height="20" transform="translate(193.84375, 897.828125)" fill="rgb(24,161,205)" style="fill: rgb(24, 161, 205);"/><rect width="113.359375" height="8" transform="translate(193.84375, 903.828125)" fill="rgb(29,129,162)" style="fill: rgb(29, 129, 162);"/><text transform="translate(1, 924.828125)"><tspan fill="rgb(24,24,24)" x="0" y="12" style="font-family: Roboto; font-weight: 400; font-size: 12px;">Wallkill Correctional Facility</tspan></text><rect width="110.25" height="20" transform="translate(193.84375, 921.828125)" fill="rgb(24,161,205)" style="fill: rgb(24, 161, 205);"/><rect width="109.859375" height="8" transform="translate(193.84375, 927.828125)" fill="rgb(29,129,162)" style="fill: rgb(29, 129, 162);"/><text transform="translate(1, 948.828125)"><tspan fill="rgb(24,24,24)" x="0" y="12" style="font-family: Roboto; font-weight: 400; font-size: 12px;">Willard Correctional Facility</tspan></text><rect width="110.0625" height="20" transform="translate(193.84375, 945.828125)" fill="rgb(24,161,205)" style="fill: rgb(24, 161, 205);"/><rect width="103.265625" height="8" transform="translate(193.84375, 951.828125)" fill="rgb(29,129,162)" style="fill: rgb(29, 129, 162);"/><text transform="translate(1, 972.828125)"><tspan fill="rgb(24,24,24)" x="0" y="12" style="font-family: Roboto; font-weight: 400; font-size: 12px;">Fishkill Correctional Facility</tspan></text><rect width="99.578125" height="20" transform="translate(193.84375, 969.828125)" fill="rgb(24,161,205)" style="fill: rgb(24, 161, 205);"/><rect width="100.359375" height="8" transform="translate(193.84375, 975.828125)" fill="rgb(29,129,162)" style="fill: rgb(29, 129, 162);"/><text transform="translate(1, 996.828125)"><tspan fill="rgb(24,24,24)" x="0" y="12" style="font-family: Roboto; font-weight: 400; font-size: 12px;">Ulster Correctional Facility</tspan></text><rect width="95.109375" height="20" transform="translate(193.84375, 993.828125)" fill="rgb(24,161,205)" style="fill: rgb(24, 161, 205);"/><rect width="95.890625" height="8" transform="translate(193.84375, 999.828125)" fill="rgb(29,129,162)" style="fill: rgb(29, 129, 162);"/><text transform="translate(1, 1020.828125)"><tspan fill="rgb(24,24,24)" x="0" y="12" style="font-family: Roboto; font-weight: 400; font-size: 12px;">Shawangunk Correctional Facility</tspan></text><rect width="96.28125" height="20" transform="translate(193.84375, 1017.828125)" fill="rgb(24,161,205)" style="fill: rgb(24, 161, 205);"/><rect width="93.75" height="8" transform="translate(193.84375, 1023.828125)" fill="rgb(29,129,162)" style="fill: rgb(29, 129, 162);"/><text transform="translate(1, 1044.828125)"><tspan fill="rgb(24,24,24)" x="0" y="12" style="font-family: Roboto; font-weight: 400; font-size: 12px;">Clinton Correctional Facility</tspan></text><rect width="89.296875" height="20" transform="translate(193.84375, 1041.828125)" fill="rgb(24,161,205)" style="fill: rgb(24, 161, 205);"/><rect width="89.484375" height="8" transform="translate(193.84375, 1047.828125)" fill="rgb(29,129,162)" style="fill: rgb(29, 129, 162);"/><text transform="translate(1, 1068.828125)"><tspan fill="rgb(24,24,24)" x="0" y="12" style="font-family: Roboto; font-weight: 400; font-size: 12px;">Sullivan Correctional Facility</tspan></text><rect width="93.953125" height="20" transform="translate(193.84375, 1065.828125)" fill="rgb(24,161,205)" style="fill: rgb(24, 161, 205);"/><rect width="88.125" height="8" transform="translate(193.84375, 1071.828125)" fill="rgb(29,129,162)" style="fill: rgb(29, 129, 162);"/><text transform="translate(1, 1092.828125)"><tspan fill="rgb(24,24,24)" x="0" y="12" style="font-family: Roboto; font-weight: 400; font-size: 12px;">Midstate Correctional Facility</tspan></text><rect width="65.03125" height="20" transform="translate(193.84375, 1089.828125)" fill="rgb(24,161,205)" style="fill: rgb(24, 161, 205);"/><rect width="84.625" height="8" transform="translate(193.84375, 1095.828125)" fill="rgb(29,129,162)" style="fill: rgb(29, 129, 162);"/><text transform="translate(1, 1116.828125)"><tspan fill="rgb(24,24,24)" x="0" y="12" style="font-family: Roboto; font-weight: 400; font-size: 12px;">Southport Correctional Facility</tspan></text><rect width="85.015625" height="20" transform="translate(193.84375, 1113.828125)" fill="rgb(24,161,205)" style="fill: rgb(24, 161, 205);"/><rect width="84.25" height="8" transform="translate(193.84375, 1119.828125)" fill="rgb(29,129,162)" style="fill: rgb(29, 129, 162);"/><text transform="translate(1, 1140.828125)"><tspan fill="rgb(24,24,24)" x="0" y="12" style="font-family: Roboto; font-weight: 400; font-size: 12px;">Hale Creek Correctional Facility</tspan></text><rect width="62.5" height="20" transform="translate(193.84375, 1137.828125)" fill="rgb(24,161,205)" style="fill: rgb(24, 161, 205);"/><rect width="80.171875" height="8" transform="translate(193.84375, 1143.828125)" fill="rgb(29,129,162)" style="fill: rgb(29, 129, 162);"/><text transform="translate(1, 1164.828125)"><tspan fill="rgb(24,24,24)" x="0" y="12" style="font-family: Roboto; font-weight: 400; font-size: 12px;">Watertown Correctional Facility</tspan></text><rect width="71.234375" height="20" transform="translate(193.84375, 1161.828125)" fill="rgb(24,161,205)" style="fill: rgb(24, 161, 205);"/><rect width="74.734375" height="8" transform="translate(193.84375, 1167.828125)" fill="rgb(29,129,162)" style="fill: rgb(29, 129, 162);"/><text transform="translate(1, 1188.828125)"><tspan fill="rgb(24,24,24)" x="0" y="12" style="font-family: Roboto; font-weight: 400; font-size: 12px;">Altona Correctional Facility</tspan></text><rect width="70.078125" height="20" transform="translate(193.84375, 1185.828125)" fill="rgb(24,161,205)" style="fill: rgb(24, 161, 205);"/><rect width="71.828125" height="8" transform="translate(193.84375, 1191.828125)" fill="rgb(29,129,162)" style="fill: rgb(29, 129, 162);"/><text transform="translate(1, 1212.828125)"><tspan fill="rgb(24,24,24)" x="0" y="12" style="font-family: Roboto; font-weight: 400; font-size: 12px;">Ogdensburg Correctional Facility</tspan></text><rect width="32.8125" height="20" transform="translate(193.84375, 1209.828125)" fill="rgb(24,161,205)" style="fill: rgb(24, 161, 205);"/><rect width="70.078125" height="8" transform="translate(193.84375, 1215.828125)" fill="rgb(29,129,162)" style="fill: rgb(29, 129, 162);"/><text transform="translate(1, 1236.828125)"><tspan fill="rgb(24,24,24)" x="0" y="12" style="font-family: Roboto; font-weight: 400; font-size: 12px;">Taconic Correctional Facility</tspan></text><rect width="149.265625" height="20" transform="translate(193.84375, 1233.828125)" fill="rgb(24,161,205)" style="fill: rgb(24, 161, 205);"/><rect width="52.40625" height="8" transform="translate(193.84375, 1239.828125)" fill="rgb(29,129,162)" style="fill: rgb(29, 129, 162);"/><text transform="translate(1, 1260.828125)"><tspan fill="rgb(24,24,24)" x="0" y="12" style="font-family: Roboto; font-weight: 400; font-size: 12px;">Great Meadow Correctional Facility</tspan></text><rect width="50.46875" height="20" transform="translate(193.84375, 1257.828125)" fill="rgb(24,161,205)" style="fill: rgb(24, 161, 205);"/><rect width="50.671875" height="8" transform="translate(193.84375, 1263.828125)" fill="rgb(29,129,162)" style="fill: rgb(29, 129, 162);"/><text transform="translate(1, 1284.828125)"><tspan fill="rgb(24,24,24)" x="0" y="12" style="font-family: Roboto; font-weight: 400; font-size: 12px;">Moriah Correctional Facility</tspan></text><rect width="35.53125" height="20" transform="translate(193.84375, 1281.828125)" fill="rgb(24,161,205)" style="fill: rgb(24, 161, 205);"/><rect width="35.53125" height="8" transform="translate(193.84375, 1287.828125)" fill="rgb(29,129,162)" style="fill: rgb(29, 129, 162);"/><text transform="translate(1, 1308.828125)"><tspan fill="rgb(24,24,24)" x="0" y="12" style="font-family: Roboto; font-weight: 400; font-size: 12px;">Queensboro Correctional Facility</tspan></text><rect width="36.109375" height="20" transform="translate(193.84375, 1305.828125)" fill="rgb(24,161,205)" style="fill: rgb(24, 161, 205);"/><rect width="33.390625" height="8" transform="translate(193.84375, 1311.828125)" fill="rgb(29,129,162)" style="fill: rgb(29, 129, 162);"/><text transform="translate(1, 1332.828125)"><tspan fill="rgb(24,24,24)" x="0" y="12" style="font-family: Roboto; font-weight: 400; font-size: 12px;">Orleans Correctional Facility</tspan></text><rect width="42.703125" height="20" transform="translate(193.84375, 1329.828125)" fill="rgb(24,161,205)" style="fill: rgb(24, 161, 205);"/><rect width="31.84375" height="8" transform="translate(193.84375, 1335.828125)" fill="rgb(29,129,162)" style="fill: rgb(29, 129, 162);"/><text transform="translate(1, 1356.828125)"><tspan fill="rgb(24,24,24)" x="0" y="12" style="font-family: Roboto; font-weight: 400; font-size: 12px;">Midstate Correctional Facility</tspan></text><rect width="21.359375" height="20" transform="translate(193.84375, 1353.828125)" fill="rgb(24,161,205)" style="fill: rgb(24, 161, 205);"/><rect width="27.765625" height="8" transform="translate(193.84375, 1359.828125)" fill="rgb(29,129,162)" style="fill: rgb(29, 129, 162);"/><text transform="translate(1, 1380.828125)"><tspan fill="rgb(24,24,24)" x="0" y="12" style="font-family: Roboto; font-weight: 400; font-size: 12px;">Hudson Correctional Facility</tspan></text><rect width="16.3125" height="20" transform="translate(193.84375, 1377.828125)" fill="rgb(24,161,205)" style="fill: rgb(24, 161, 205);"/><rect width="15.921875" height="8" transform="translate(193.84375, 1383.828125)" fill="rgb(29,129,162)" style="fill: rgb(29, 129, 162);"/><text transform="translate(1, 1404.828125)"><tspan fill="rgb(24,24,24)" x="0" y="12" style="font-family: Roboto; font-weight: 400; font-size: 12px;">Wende Correctional Facility</tspan></text><rect width="15.53125" height="20" transform="translate(193.84375, 1401.828125)" fill="rgb(24,161,205)" style="fill: rgb(24, 161, 205);"/><rect width="15.734375" height="8" transform="translate(193.84375, 1407.828125)" fill="rgb(29,129,162)" style="fill: rgb(29, 129, 162);"/><text transform="translate(1, 1428.828125)"><tspan fill="rgb(24,24,24)" x="0" y="12" style="font-family: Roboto; font-weight: 400; font-size: 12px;">Edgecombe Correctional Facility</tspan></text><rect width="24.265625" height="20" transform="translate(193.84375, 1425.828125)" fill="rgb(24,161,205)" style="fill: rgb(24, 161, 205);"/><rect width="13.40625" height="8" transform="translate(193.84375, 1431.828125)" fill="rgb(29,129,162)" style="fill: rgb(29, 129, 162);"/><text transform="translate(1, 1452.828125)"><tspan fill="rgb(24,24,24)" x="0" y="12" style="font-family: Roboto; font-weight: 400; font-size: 12px;">Gowanda Correctional Facility</tspan></text><rect width="13.015625" height="20" transform="translate(193.84375, 1449.828125)" fill="rgb(24,161,205)" style="fill: rgb(24, 161, 205);"/><rect width="6.796875" height="8" transform="translate(193.84375, 1455.828125)" fill="rgb(29,129,162)" style="fill: rgb(29, 129, 162);"/><text transform="translate(1, 1476.828125)"><tspan fill="rgb(24,24,24)" x="0" y="12" style="font-family: Roboto; font-weight: 400; font-size: 12px;">Rochester Correctional Facility</tspan></text><rect width="6.796875" height="20" transform="translate(193.84375, 1473.828125)" fill="rgb(24,161,205)" style="fill: rgb(24, 161, 205);"/><rect width="5.640625" height="8" transform="translate(193.84375, 1479.828125)" fill="rgb(29,129,162)" style="fill: rgb(29, 129, 162);"/><text transform="translate(1, 1500.828125)"><tspan fill="rgb(24,24,24)" x="0" y="12" style="font-family: Roboto; font-weight: 400; font-size: 12px;">Groveland Correctional Facility</tspan></text><rect width="4.671875" height="20" transform="translate(193.84375, 1497.828125)" fill="rgb(24,161,205)" style="fill: rgb(24, 161, 205);"/><rect width="4.46875" height="8" transform="translate(193.84375, 1503.828125)" fill="rgb(29,129,162)" style="fill: rgb(29, 129, 162);"/><text transform="translate(1, 1524.828125)"><tspan fill="rgb(24,24,24)" x="0" y="12" style="font-family: Roboto; font-weight: 400; font-size: 12px;">Sullivan Correctional Facility</tspan></text><rect width="4.078125" height="20" transform="translate(193.84375, 1521.828125)" fill="rgb(24,161,205)" style="fill: rgb(24, 161, 205);"/><rect width="3.890625" height="8" transform="translate(193.84375, 1527.828125)" fill="rgb(29,129,162)" style="fill: rgb(29, 129, 162);"/><text transform="translate(1, 1548.828125)"><tspan fill="rgb(24,24,24)" x="0" y="12" style="font-family: Roboto; font-weight: 400; font-size: 12px;">Adirondack Correctional Facility</tspan></text><rect width="114.71875" height="20" transform="translate(193.84375, 1545.828125)" fill="rgb(24,161,205)" style="fill: rgb(24, 161, 205);"/><rect width="2.53125" height="8" transform="translate(193.84375, 1551.828125)" fill="rgb(29,129,162)" style="fill: rgb(29, 129, 162);"/><text transform="translate(1, 1572.828125)"><tspan fill="rgb(24,24,24)" x="0" y="12" style="font-family: Roboto; font-weight: 400; font-size: 12px;">Downstate Correctional Facility</tspan></text><rect width="2.140625" height="20" transform="translate(193.84375, 1569.828125)" fill="rgb(24,161,205)" style="fill: rgb(24, 161, 205);"/><rect width="2.140625" height="8" transform="translate(193.84375, 1575.828125)" fill="rgb(29,129,162)" style="fill: rgb(29, 129, 162);"/><text transform="translate(1, 1596.828125)"><tspan fill="rgb(24,24,24)" x="0" y="12" style="font-family: Roboto; font-weight: 400; font-size: 12px;">Groveland Correctional Facility</tspan></text><rect width="1.953125" height="20" transform="translate(193.84375, 1593.828125)" fill="rgb(24,161,205)" style="fill: rgb(24, 161, 205);"/><rect width="1.953125" height="8" transform="translate(193.84375, 1599.828125)" fill="rgb(29,129,162)" style="fill: rgb(29, 129, 162);"/><g id="grid-container-svg" transform="translate(193.84375, 81.82813)"><g id="grid-svg"><g id="x-tick-labels-svg grid-x-svg number-axis-svg datawrapper-JYHbs-16k86v8-svg" transform="translate(0, -8)"><text transform="translate(0, 0) translate(-3.50781, 0.00000) translate(3.5078125, 0)" style="text-anchor: middle;"><tspan fill="rgb(162, 162, 162)" style="font-family: Roboto; font-weight: 400; font-size: 12px;" x="0" dominant-baseline="auto" y="0">0</tspan></text><text transform="translate(97.04571901028908, 0) translate(-10.24219, 0.00000) translate(10.2421875, 0)" style="text-anchor: middle;"><tspan fill="rgb(162, 162, 162)" style="font-family: Roboto; font-weight: 400; font-size: 12px;" x="0" dominant-baseline="auto" y="0">500</tspan></text><text transform="translate(194.09143802057815, 0) translate(-14.78906, 0.00000) translate(14.7890625, 0)" style="text-anchor: middle;"><tspan fill="rgb(162, 162, 162)" style="font-family: Roboto; font-weight: 400; font-size: 12px;" x="0" dominant-baseline="auto" y="0">1,000</tspan></text><text transform="translate(291.13715703086723, 0) translate(-14.78906, 0.00000) translate(14.7890625, 0)" style="text-anchor: middle;"><tspan fill="rgb(162, 162, 162)" style="font-family: Roboto; font-weight: 400; font-size: 12px;" x="0" dominant-baseline="auto" y="0">1,500</tspan></text><text transform="translate(388.1828760411563, 0) translate(-29.57813, 0.00000) translate(29.578125, 0)" style="text-anchor: end;"><tspan fill="rgb(162, 162, 162)" style="font-family: Roboto; font-weight: 400; font-size: 12px;" x="0" dominant-baseline="auto" y="0">2,000</tspan></text></g><g id="x-base-lines-svg grid-x-svg datawrapper-JYHbs-1io9s9d-svg"><line x1="0" x2="0" y1="1532" y2="0" transform="translate(0, 0)" style="fill: none; stroke-width: 1; stroke-linejoin: miter; stroke-linecap: butt; stroke: rgb(24, 24, 24);"/></g></g></g></g><g id="footer-svg"><text transform="translate(0, 1635)"><tspan fill="rgb(136,136,136)" x="0" y="11" style="font-family: Roboto; font-weight: 400; font-size: 11px;">Created with</tspan><tspan fill="rgb(136,136,136)" style="font-family: Roboto; font-weight: 400; font-size: 11px;">​ ​</tspan><tspan fill="rgb(136,136,136)" style="font-family: Roboto; font-weight: 400; font-size: 11px;">Datawrapper</tspan></text></g></g></g></svg>